solid OpenSCAD_Model
  facet normal -0 0 -1
    outer loop
      vertex 22.0058 -4.67746 0
      vertex 20.8037 -6.75952 0
      vertex 9 0 0
    endloop
  endfacet
  facet normal 0 -0 -1
    outer loop
      vertex 22.1772 4.14999 0
      vertex 22.1772 -4.14999 0
      vertex 9 0 0
    endloop
  endfacet
  facet normal -0 0 -1
    outer loop
      vertex 20.8037 -6.75952 0
      vertex 19.195 -8.54616 0
      vertex 8.42705 -1.76335 0
    endloop
  endfacet
  facet normal 0 0 -1
    outer loop
      vertex 9 0 0
      vertex 22.1772 -4.14999 0
      vertex 22.0058 -4.67746 0
    endloop
  endfacet
  facet normal 0 0 -1
    outer loop
      vertex 8.42705 -1.76335 0
      vertex 19.195 -8.54616 0
      vertex 17.25 -9.95929 0
    endloop
  endfacet
  facet normal 0 0 -1
    outer loop
      vertex 3.80499 8.54616 0
      vertex 5.75 9.95929 0
      vertex 6.92705 2.85316 0
    endloop
  endfacet
  facet normal 0 0 -1
    outer loop
      vertex 55 -4.14999 0
      vertex 22.1772 4.14999 0
      vertex 55 4.14999 0
    endloop
  endfacet
  facet normal 0 0 -1
    outer loop
      vertex 55 -4.14999 0
      vertex 22.1772 -4.14999 0
      vertex 22.1772 4.14999 0
    endloop
  endfacet
  facet normal 0 0 -1
    outer loop
      vertex 8.42705 1.76335 0
      vertex 20.8037 6.75952 0
      vertex 9 0 0
    endloop
  endfacet
  facet normal 0 -0 -1
    outer loop
      vertex 17.25 9.95929 0
      vertex 19.195 8.54616 0
      vertex 8.42705 1.76335 0
    endloop
  endfacet
  facet normal -0 0 -1
    outer loop
      vertex 15.0537 10.9371 0
      vertex 8.42705 1.76335 0
      vertex 12.7021 11.437 0
    endloop
  endfacet
  facet normal -0 0 -1
    outer loop
      vertex 12.7021 11.437 0
      vertex 8.42705 1.76335 0
      vertex 10.2979 11.437 0
    endloop
  endfacet
  facet normal 0 0 -1
    outer loop
      vertex 10.2979 11.437 0
      vertex 8.42705 1.76335 0
      vertex 6.92705 2.85316 0
    endloop
  endfacet
  facet normal 0 0 -1
    outer loop
      vertex 5.07294 2.85316 0
      vertex 3.80499 8.54616 0
      vertex 6.92705 2.85316 0
    endloop
  endfacet
  facet normal 0 0 -1
    outer loop
      vertex 5.07294 2.85316 0
      vertex 2.1963 6.75952 0
      vertex 3.80499 8.54616 0
    endloop
  endfacet
  facet normal 0 0 -1
    outer loop
      vertex 3.57294 1.76335 0
      vertex 0.994217 4.67746 0
      vertex 5.07294 2.85316 0
    endloop
  endfacet
  facet normal 0 0 -1
    outer loop
      vertex 3 0 0
      vertex 0 4.14999 0
      vertex 0.82283 4.14999 0
    endloop
  endfacet
  facet normal 0 0 -1
    outer loop
      vertex 10.2979 11.437 0
      vertex 6.92705 2.85316 0
      vertex 7.9463 10.9371 0
    endloop
  endfacet
  facet normal 0 -0 -1
    outer loop
      vertex 19.195 8.54616 0
      vertex 20.8037 6.75952 0
      vertex 8.42705 1.76335 0
    endloop
  endfacet
  facet normal 0 0 -1
    outer loop
      vertex 0.994217 -4.67746 0
      vertex 5.07294 -2.85316 0
      vertex 2.1963 -6.75952 0
    endloop
  endfacet
  facet normal 0 0 -1
    outer loop
      vertex 0.82283 -4.14999 0
      vertex 3 0 0
      vertex 3.57294 -1.76335 0
    endloop
  endfacet
  facet normal -0 0 -1
    outer loop
      vertex 15.0537 -10.9371 0
      vertex 12.7021 -11.437 0
      vertex 8.42705 -1.76335 0
    endloop
  endfacet
  facet normal -0 0 -1
    outer loop
      vertex 6.92705 -2.85316 0
      vertex 3.80499 -8.54616 0
      vertex 5.07294 -2.85316 0
    endloop
  endfacet
  facet normal 0 0 -1
    outer loop
      vertex 0.82283 -4.14999 0
      vertex 0 -4.14999 0
      vertex 3 0 0
    endloop
  endfacet
  facet normal 0 0 -1
    outer loop
      vertex 3.80499 -8.54616 0
      vertex 2.1963 -6.75952 0
      vertex 5.07294 -2.85316 0
    endloop
  endfacet
  facet normal 0 0 -1
    outer loop
      vertex 6.92705 -2.85316 0
      vertex 5.74998 -9.95929 0
      vertex 3.80499 -8.54616 0
    endloop
  endfacet
  facet normal 0 -0 -1
    outer loop
      vertex 6.92705 -2.85316 0
      vertex 7.9463 -10.9371 0
      vertex 5.74998 -9.95929 0
    endloop
  endfacet
  facet normal 0 0 -1
    outer loop
      vertex 6.92705 -2.85316 0
      vertex 10.2979 -11.437 0
      vertex 7.9463 -10.9371 0
    endloop
  endfacet
  facet normal 0 0 -1
    outer loop
      vertex 8.42705 -1.76335 0
      vertex 12.7021 -11.437 0
      vertex 10.2979 -11.437 0
    endloop
  endfacet
  facet normal 0 -0 -1
    outer loop
      vertex 20.8037 6.75952 0
      vertex 22.0058 4.67746 0
      vertex 9 0 0
    endloop
  endfacet
  facet normal 0 0 -1
    outer loop
      vertex 0.994217 -4.67746 0
      vertex 3.57294 -1.76335 0
      vertex 5.07294 -2.85316 0
    endloop
  endfacet
  facet normal 0 0 -1
    outer loop
      vertex 0.994217 -4.67746 0
      vertex 0.82283 -4.14999 0
      vertex 3.57294 -1.76335 0
    endloop
  endfacet
  facet normal 0 0 -1
    outer loop
      vertex 0 -4.14999 0
      vertex 0 4.14999 0
      vertex 3 0 0
    endloop
  endfacet
  facet normal 0 0 -1
    outer loop
      vertex 3.57294 1.76335 0
      vertex 0.82283 4.14999 0
      vertex 0.994217 4.67746 0
    endloop
  endfacet
  facet normal 0 0 -1
    outer loop
      vertex 3 0 0
      vertex 0.82283 4.14999 0
      vertex 3.57294 1.76335 0
    endloop
  endfacet
  facet normal 0 0 -1
    outer loop
      vertex 0.994217 4.67746 0
      vertex 2.1963 6.75952 0
      vertex 5.07294 2.85316 0
    endloop
  endfacet
  facet normal 0 0 -1
    outer loop
      vertex 5.75 9.95929 0
      vertex 7.9463 10.9371 0
      vertex 6.92705 2.85316 0
    endloop
  endfacet
  facet normal 0 -0 -1
    outer loop
      vertex 15.0537 10.9371 0
      vertex 17.25 9.95929 0
      vertex 8.42705 1.76335 0
    endloop
  endfacet
  facet normal 0 -0 -1
    outer loop
      vertex 22.0058 4.67746 0
      vertex 22.1772 4.14999 0
      vertex 9 0 0
    endloop
  endfacet
  facet normal 0 -0 -1
    outer loop
      vertex 9 0 0
      vertex 20.8037 -6.75952 0
      vertex 8.42705 -1.76335 0
    endloop
  endfacet
  facet normal 0 0 -1
    outer loop
      vertex 6.92705 -2.85316 0
      vertex 8.42705 -1.76335 0
      vertex 10.2979 -11.437 0
    endloop
  endfacet
  facet normal 0 0 -1
    outer loop
      vertex 8.42705 -1.76335 0
      vertex 17.25 -9.95929 0
      vertex 15.0537 -10.9371 0
    endloop
  endfacet
  facet normal 0 0 1
    outer loop
      vertex 9 0 2.2
      vertex 20.8037 -6.75952 2.2
      vertex 22.0058 -4.67746 2.2
    endloop
  endfacet
  facet normal -0 0 1
    outer loop
      vertex 9 0 2.2
      vertex 22.1772 -4.14999 2.2
      vertex 22.1772 4.14999 2.2
    endloop
  endfacet
  facet normal 0 0 1
    outer loop
      vertex 8.42705 -1.76335 2.2
      vertex 19.195 -8.54616 2.2
      vertex 20.8037 -6.75952 2.2
    endloop
  endfacet
  facet normal 0 -0 1
    outer loop
      vertex 22.0058 -4.67746 2.2
      vertex 22.1772 -4.14999 2.2
      vertex 9 0 2.2
    endloop
  endfacet
  facet normal 0 -0 1
    outer loop
      vertex 17.25 -9.95929 2.2
      vertex 19.195 -8.54616 2.2
      vertex 8.42705 -1.76335 2.2
    endloop
  endfacet
  facet normal 0 0 1
    outer loop
      vertex 6.92705 2.85316 2.2
      vertex 5.75 9.95929 2.2
      vertex 3.80499 8.54616 2.2
    endloop
  endfacet
  facet normal 0 0 1
    outer loop
      vertex 55 4.14999 2.2
      vertex 22.1772 4.14999 2.2
      vertex 55 -4.14999 2.2
    endloop
  endfacet
  facet normal 0 0 1
    outer loop
      vertex 22.1772 4.14999 2.2
      vertex 22.1772 -4.14999 2.2
      vertex 55 -4.14999 2.2
    endloop
  endfacet
  facet normal 0 -0 1
    outer loop
      vertex 9 0 2.2
      vertex 20.8037 6.75952 2.2
      vertex 8.42705 1.76335 2.2
    endloop
  endfacet
  facet normal 0 0 1
    outer loop
      vertex 8.42705 1.76335 2.2
      vertex 19.195 8.54616 2.2
      vertex 17.25 9.95929 2.2
    endloop
  endfacet
  facet normal 0 0 1
    outer loop
      vertex 12.7021 11.437 2.2
      vertex 8.42705 1.76335 2.2
      vertex 15.0537 10.9371 2.2
    endloop
  endfacet
  facet normal -0 0 1
    outer loop
      vertex 10.2979 11.437 2.2
      vertex 8.42705 1.76335 2.2
      vertex 12.7021 11.437 2.2
    endloop
  endfacet
  facet normal -0 0 1
    outer loop
      vertex 6.92705 2.85316 2.2
      vertex 8.42705 1.76335 2.2
      vertex 10.2979 11.437 2.2
    endloop
  endfacet
  facet normal 0 0 1
    outer loop
      vertex 6.92705 2.85316 2.2
      vertex 3.80499 8.54616 2.2
      vertex 5.07294 2.85316 2.2
    endloop
  endfacet
  facet normal 0 0 1
    outer loop
      vertex 3.80499 8.54616 2.2
      vertex 2.1963 6.75952 2.2
      vertex 5.07294 2.85316 2.2
    endloop
  endfacet
  facet normal 0 0 1
    outer loop
      vertex 5.07294 2.85316 2.2
      vertex 0.994217 4.67746 2.2
      vertex 3.57294 1.76335 2.2
    endloop
  endfacet
  facet normal 0 0 1
    outer loop
      vertex 0.82283 4.14999 2.2
      vertex 0 4.14999 2.2
      vertex 3 0 2.2
    endloop
  endfacet
  facet normal -0 0 1
    outer loop
      vertex 7.9463 10.9371 2.2
      vertex 6.92705 2.85316 2.2
      vertex 10.2979 11.437 2.2
    endloop
  endfacet
  facet normal 0 0 1
    outer loop
      vertex 8.42705 1.76335 2.2
      vertex 20.8037 6.75952 2.2
      vertex 19.195 8.54616 2.2
    endloop
  endfacet
  facet normal 0 -0 1
    outer loop
      vertex 2.1963 -6.75952 2.2
      vertex 5.07294 -2.85316 2.2
      vertex 0.994217 -4.67746 2.2
    endloop
  endfacet
  facet normal 0 0 1
    outer loop
      vertex 3.57294 -1.76335 2.2
      vertex 3 0 2.2
      vertex 0.82283 -4.14999 2.2
    endloop
  endfacet
  facet normal 0 0 1
    outer loop
      vertex 8.42705 -1.76335 2.2
      vertex 12.7021 -11.437 2.2
      vertex 15.0537 -10.9371 2.2
    endloop
  endfacet
  facet normal -0 0 1
    outer loop
      vertex 5.07294 -2.85316 2.2
      vertex 3.80499 -8.54616 2.2
      vertex 6.92705 -2.85316 2.2
    endloop
  endfacet
  facet normal 0 0 1
    outer loop
      vertex 3 0 2.2
      vertex 0 -4.14999 2.2
      vertex 0.82283 -4.14999 2.2
    endloop
  endfacet
  facet normal 0 0 1
    outer loop
      vertex 5.07294 -2.85316 2.2
      vertex 2.1963 -6.75952 2.2
      vertex 3.80499 -8.54616 2.2
    endloop
  endfacet
  facet normal -0 0 1
    outer loop
      vertex 3.80499 -8.54616 2.2
      vertex 5.74998 -9.95929 2.2
      vertex 6.92705 -2.85316 2.2
    endloop
  endfacet
  facet normal -0 0 1
    outer loop
      vertex 5.74998 -9.95929 2.2
      vertex 7.9463 -10.9371 2.2
      vertex 6.92705 -2.85316 2.2
    endloop
  endfacet
  facet normal -0 -0 1
    outer loop
      vertex 7.9463 -10.9371 2.2
      vertex 10.2979 -11.437 2.2
      vertex 6.92705 -2.85316 2.2
    endloop
  endfacet
  facet normal 0 -0 1
    outer loop
      vertex 10.2979 -11.437 2.2
      vertex 12.7021 -11.437 2.2
      vertex 8.42705 -1.76335 2.2
    endloop
  endfacet
  facet normal 0 0 1
    outer loop
      vertex 9 0 2.2
      vertex 22.0058 4.67746 2.2
      vertex 20.8037 6.75952 2.2
    endloop
  endfacet
  facet normal 0 0 1
    outer loop
      vertex 5.07294 -2.85316 2.2
      vertex 3.57294 -1.76335 2.2
      vertex 0.994217 -4.67746 2.2
    endloop
  endfacet
  facet normal 0 0 1
    outer loop
      vertex 3.57294 -1.76335 2.2
      vertex 0.82283 -4.14999 2.2
      vertex 0.994217 -4.67746 2.2
    endloop
  endfacet
  facet normal 0 0 1
    outer loop
      vertex 3 0 2.2
      vertex 0 4.14999 2.2
      vertex 0 -4.14999 2.2
    endloop
  endfacet
  facet normal 0 0 1
    outer loop
      vertex 0.994217 4.67746 2.2
      vertex 0.82283 4.14999 2.2
      vertex 3.57294 1.76335 2.2
    endloop
  endfacet
  facet normal 0 0 1
    outer loop
      vertex 3.57294 1.76335 2.2
      vertex 0.82283 4.14999 2.2
      vertex 3 0 2.2
    endloop
  endfacet
  facet normal 0 0 1
    outer loop
      vertex 5.07294 2.85316 2.2
      vertex 2.1963 6.75952 2.2
      vertex 0.994217 4.67746 2.2
    endloop
  endfacet
  facet normal 0 -0 1
    outer loop
      vertex 6.92705 2.85316 2.2
      vertex 7.9463 10.9371 2.2
      vertex 5.75 9.95929 2.2
    endloop
  endfacet
  facet normal 0 0 1
    outer loop
      vertex 8.42705 1.76335 2.2
      vertex 17.25 9.95929 2.2
      vertex 15.0537 10.9371 2.2
    endloop
  endfacet
  facet normal 0 0 1
    outer loop
      vertex 9 0 2.2
      vertex 22.1772 4.14999 2.2
      vertex 22.0058 4.67746 2.2
    endloop
  endfacet
  facet normal -0 0 1
    outer loop
      vertex 8.42705 -1.76335 2.2
      vertex 20.8037 -6.75952 2.2
      vertex 9 0 2.2
    endloop
  endfacet
  facet normal 0 0 1
    outer loop
      vertex 10.2979 -11.437 2.2
      vertex 8.42705 -1.76335 2.2
      vertex 6.92705 -2.85316 2.2
    endloop
  endfacet
  facet normal 0 -0 1
    outer loop
      vertex 15.0537 -10.9371 2.2
      vertex 17.25 -9.95929 2.2
      vertex 8.42705 -1.76335 2.2
    endloop
  endfacet
  facet normal 0.406735 -0.913546 0
    outer loop
      vertex 17.25 -9.95929 0
      vertex 15.0537 -10.9371 2.2
      vertex 15.0537 -10.9371 0
    endloop
  endfacet
  facet normal 0.406735 -0.913546 0
    outer loop
      vertex 17.25 -9.95929 0
      vertex 17.25 -9.95929 2.2
      vertex 15.0537 -10.9371 2.2
    endloop
  endfacet
  facet normal 0.587789 -0.809015 0
    outer loop
      vertex 19.195 -8.54616 0
      vertex 17.25 -9.95929 2.2
      vertex 17.25 -9.95929 0
    endloop
  endfacet
  facet normal 0.587789 -0.809015 0
    outer loop
      vertex 19.195 -8.54616 0
      vertex 19.195 -8.54616 2.2
      vertex 17.25 -9.95929 2.2
    endloop
  endfacet
  facet normal 0.743146 -0.669129 0
    outer loop
      vertex 20.8037 -6.75952 0
      vertex 19.195 -8.54616 2.2
      vertex 19.195 -8.54616 0
    endloop
  endfacet
  facet normal 0.743146 -0.669129 0
    outer loop
      vertex 20.8037 -6.75952 0
      vertex 20.8037 -6.75952 2.2
      vertex 19.195 -8.54616 2.2
    endloop
  endfacet
  facet normal 0.866024 -0.500003 0
    outer loop
      vertex 22.0058 -4.67746 0
      vertex 20.8037 -6.75952 2.2
      vertex 20.8037 -6.75952 0
    endloop
  endfacet
  facet normal 0.866024 -0.500003 0
    outer loop
      vertex 22.0058 -4.67746 0
      vertex 22.0058 -4.67746 2.2
      vertex 20.8037 -6.75952 2.2
    endloop
  endfacet
  facet normal 0.951055 -0.309021 0
    outer loop
      vertex 22.1772 -4.14999 0
      vertex 22.0058 -4.67746 2.2
      vertex 22.0058 -4.67746 0
    endloop
  endfacet
  facet normal 0.951055 -0.309021 0
    outer loop
      vertex 22.1772 -4.14999 0
      vertex 22.1772 -4.14999 2.2
      vertex 22.0058 -4.67746 2.2
    endloop
  endfacet
  facet normal 0 -1 0
    outer loop
      vertex 55 -4.14999 0
      vertex 22.1772 -4.14999 2.2
      vertex 22.1772 -4.14999 0
    endloop
  endfacet
  facet normal 0 -1 0
    outer loop
      vertex 55 -4.14999 0
      vertex 55 -4.14999 2.2
      vertex 22.1772 -4.14999 2.2
    endloop
  endfacet
  facet normal 1 0 0
    outer loop
      vertex 55 4.14999 0
      vertex 55 -4.14999 2.2
      vertex 55 -4.14999 0
    endloop
  endfacet
  facet normal 1 0 -0
    outer loop
      vertex 55 4.14999 0
      vertex 55 4.14999 2.2
      vertex 55 -4.14999 2.2
    endloop
  endfacet
  facet normal 0 1 0
    outer loop
      vertex 22.1772 4.14999 0
      vertex 55 4.14999 2.2
      vertex 55 4.14999 0
    endloop
  endfacet
  facet normal 0 1 0
    outer loop
      vertex 22.1772 4.14999 0
      vertex 22.1772 4.14999 2.2
      vertex 55 4.14999 2.2
    endloop
  endfacet
  facet normal 0.951055 0.309021 0
    outer loop
      vertex 22.0058 4.67746 0
      vertex 22.1772 4.14999 2.2
      vertex 22.1772 4.14999 0
    endloop
  endfacet
  facet normal 0.951055 0.309021 -0
    outer loop
      vertex 22.0058 4.67746 0
      vertex 22.0058 4.67746 2.2
      vertex 22.1772 4.14999 2.2
    endloop
  endfacet
  facet normal 0.866024 0.500003 0
    outer loop
      vertex 20.8037 6.75952 0
      vertex 22.0058 4.67746 2.2
      vertex 22.0058 4.67746 0
    endloop
  endfacet
  facet normal 0.866024 0.500003 -0
    outer loop
      vertex 20.8037 6.75952 0
      vertex 20.8037 6.75952 2.2
      vertex 22.0058 4.67746 2.2
    endloop
  endfacet
  facet normal 0.743146 0.669129 0
    outer loop
      vertex 19.195 8.54616 0
      vertex 20.8037 6.75952 2.2
      vertex 20.8037 6.75952 0
    endloop
  endfacet
  facet normal 0.743146 0.669129 -0
    outer loop
      vertex 19.195 8.54616 0
      vertex 19.195 8.54616 2.2
      vertex 20.8037 6.75952 2.2
    endloop
  endfacet
  facet normal 0.587789 0.809015 0
    outer loop
      vertex 17.25 9.95929 0
      vertex 19.195 8.54616 2.2
      vertex 19.195 8.54616 0
    endloop
  endfacet
  facet normal 0.587789 0.809015 -0
    outer loop
      vertex 17.25 9.95929 0
      vertex 17.25 9.95929 2.2
      vertex 19.195 8.54616 2.2
    endloop
  endfacet
  facet normal 0.406735 0.913546 0
    outer loop
      vertex 15.0537 10.9371 0
      vertex 17.25 9.95929 2.2
      vertex 17.25 9.95929 0
    endloop
  endfacet
  facet normal 0.406735 0.913546 -0
    outer loop
      vertex 15.0537 10.9371 0
      vertex 15.0537 10.9371 2.2
      vertex 17.25 9.95929 2.2
    endloop
  endfacet
  facet normal 0.207911 0.978148 0
    outer loop
      vertex 12.7021 11.437 0
      vertex 15.0537 10.9371 2.2
      vertex 15.0537 10.9371 0
    endloop
  endfacet
  facet normal 0.207911 0.978148 -0
    outer loop
      vertex 12.7021 11.437 0
      vertex 12.7021 11.437 2.2
      vertex 15.0537 10.9371 2.2
    endloop
  endfacet
  facet normal 0 1 0
    outer loop
      vertex 10.2979 11.437 0
      vertex 12.7021 11.437 2.2
      vertex 12.7021 11.437 0
    endloop
  endfacet
  facet normal 0 1 0
    outer loop
      vertex 10.2979 11.437 0
      vertex 10.2979 11.437 2.2
      vertex 12.7021 11.437 2.2
    endloop
  endfacet
  facet normal -0.207911 0.978148 0
    outer loop
      vertex 7.9463 10.9371 0
      vertex 10.2979 11.437 2.2
      vertex 10.2979 11.437 0
    endloop
  endfacet
  facet normal -0.207911 0.978148 0
    outer loop
      vertex 7.9463 10.9371 0
      vertex 7.9463 10.9371 2.2
      vertex 10.2979 11.437 2.2
    endloop
  endfacet
  facet normal -0.406737 0.913545 0
    outer loop
      vertex 5.75 9.95929 0
      vertex 7.9463 10.9371 2.2
      vertex 7.9463 10.9371 0
    endloop
  endfacet
  facet normal -0.406737 0.913545 0
    outer loop
      vertex 5.75 9.95929 0
      vertex 5.75 9.95929 2.2
      vertex 7.9463 10.9371 2.2
    endloop
  endfacet
  facet normal -0.587786 0.809017 0
    outer loop
      vertex 3.80499 8.54616 0
      vertex 5.75 9.95929 2.2
      vertex 5.75 9.95929 0
    endloop
  endfacet
  facet normal -0.587786 0.809017 0
    outer loop
      vertex 3.80499 8.54616 0
      vertex 3.80499 8.54616 2.2
      vertex 5.75 9.95929 2.2
    endloop
  endfacet
  facet normal -0.743146 0.669129 0
    outer loop
      vertex 2.1963 6.75952 0
      vertex 3.80499 8.54616 2.2
      vertex 3.80499 8.54616 0
    endloop
  endfacet
  facet normal -0.743146 0.669129 0
    outer loop
      vertex 2.1963 6.75952 0
      vertex 2.1963 6.75952 2.2
      vertex 3.80499 8.54616 2.2
    endloop
  endfacet
  facet normal -0.866024 0.500003 0
    outer loop
      vertex 0.994217 4.67746 0
      vertex 2.1963 6.75952 2.2
      vertex 2.1963 6.75952 0
    endloop
  endfacet
  facet normal -0.866024 0.500003 0
    outer loop
      vertex 0.994217 4.67746 0
      vertex 0.994217 4.67746 2.2
      vertex 2.1963 6.75952 2.2
    endloop
  endfacet
  facet normal -0.951055 0.309021 0
    outer loop
      vertex 0.82283 4.14999 0
      vertex 0.994217 4.67746 2.2
      vertex 0.994217 4.67746 0
    endloop
  endfacet
  facet normal -0.951055 0.309021 0
    outer loop
      vertex 0.82283 4.14999 0
      vertex 0.82283 4.14999 2.2
      vertex 0.994217 4.67746 2.2
    endloop
  endfacet
  facet normal 0 1 0
    outer loop
      vertex 0 4.14999 0
      vertex 0.82283 4.14999 2.2
      vertex 0.82283 4.14999 0
    endloop
  endfacet
  facet normal 0 1 0
    outer loop
      vertex 0 4.14999 0
      vertex 0 4.14999 2.2
      vertex 0.82283 4.14999 2.2
    endloop
  endfacet
  facet normal -1 0 0
    outer loop
      vertex 0 -4.14999 0
      vertex 0 4.14999 2.2
      vertex 0 4.14999 0
    endloop
  endfacet
  facet normal -1 0 0
    outer loop
      vertex 0 -4.14999 0
      vertex 0 -4.14999 2.2
      vertex 0 4.14999 2.2
    endloop
  endfacet
  facet normal 0 -1 0
    outer loop
      vertex 0.82283 -4.14999 0
      vertex 0 -4.14999 2.2
      vertex 0 -4.14999 0
    endloop
  endfacet
  facet normal 0 -1 0
    outer loop
      vertex 0.82283 -4.14999 0
      vertex 0.82283 -4.14999 2.2
      vertex 0 -4.14999 2.2
    endloop
  endfacet
  facet normal -0.951055 -0.309021 0
    outer loop
      vertex 0.994217 -4.67746 0
      vertex 0.82283 -4.14999 2.2
      vertex 0.82283 -4.14999 0
    endloop
  endfacet
  facet normal -0.951055 -0.309021 0
    outer loop
      vertex 0.994217 -4.67746 0
      vertex 0.994217 -4.67746 2.2
      vertex 0.82283 -4.14999 2.2
    endloop
  endfacet
  facet normal -0.866024 -0.500003 0
    outer loop
      vertex 2.1963 -6.75952 0
      vertex 0.994217 -4.67746 2.2
      vertex 0.994217 -4.67746 0
    endloop
  endfacet
  facet normal -0.866024 -0.500003 0
    outer loop
      vertex 2.1963 -6.75952 0
      vertex 2.1963 -6.75952 2.2
      vertex 0.994217 -4.67746 2.2
    endloop
  endfacet
  facet normal -0.743146 -0.669129 0
    outer loop
      vertex 3.80499 -8.54616 0
      vertex 2.1963 -6.75952 2.2
      vertex 2.1963 -6.75952 0
    endloop
  endfacet
  facet normal -0.743146 -0.669129 0
    outer loop
      vertex 3.80499 -8.54616 0
      vertex 3.80499 -8.54616 2.2
      vertex 2.1963 -6.75952 2.2
    endloop
  endfacet
  facet normal -0.587789 -0.809015 0
    outer loop
      vertex 5.74998 -9.95929 0
      vertex 3.80499 -8.54616 2.2
      vertex 3.80499 -8.54616 0
    endloop
  endfacet
  facet normal -0.587789 -0.809015 0
    outer loop
      vertex 5.74998 -9.95929 0
      vertex 5.74998 -9.95929 2.2
      vertex 3.80499 -8.54616 2.2
    endloop
  endfacet
  facet normal -0.406735 -0.913546 0
    outer loop
      vertex 7.9463 -10.9371 0
      vertex 5.74998 -9.95929 2.2
      vertex 5.74998 -9.95929 0
    endloop
  endfacet
  facet normal -0.406735 -0.913546 0
    outer loop
      vertex 7.9463 -10.9371 0
      vertex 7.9463 -10.9371 2.2
      vertex 5.74998 -9.95929 2.2
    endloop
  endfacet
  facet normal -0.207911 -0.978148 0
    outer loop
      vertex 10.2979 -11.437 0
      vertex 7.9463 -10.9371 2.2
      vertex 7.9463 -10.9371 0
    endloop
  endfacet
  facet normal -0.207911 -0.978148 0
    outer loop
      vertex 10.2979 -11.437 0
      vertex 10.2979 -11.437 2.2
      vertex 7.9463 -10.9371 2.2
    endloop
  endfacet
  facet normal 0 -1 0
    outer loop
      vertex 12.7021 -11.437 0
      vertex 10.2979 -11.437 2.2
      vertex 10.2979 -11.437 0
    endloop
  endfacet
  facet normal 0 -1 0
    outer loop
      vertex 12.7021 -11.437 0
      vertex 12.7021 -11.437 2.2
      vertex 10.2979 -11.437 2.2
    endloop
  endfacet
  facet normal 0.207911 -0.978148 0
    outer loop
      vertex 15.0537 -10.9371 0
      vertex 12.7021 -11.437 2.2
      vertex 12.7021 -11.437 0
    endloop
  endfacet
  facet normal 0.207911 -0.978148 0
    outer loop
      vertex 15.0537 -10.9371 0
      vertex 15.0537 -10.9371 2.2
      vertex 12.7021 -11.437 2.2
    endloop
  endfacet
  facet normal 0.587785 0.809017 -0
    outer loop
      vertex 3.57294 -1.76335 0
      vertex 3.57294 -1.76335 2.2
      vertex 5.07294 -2.85316 0
    endloop
  endfacet
  facet normal 0.587785 0.809017 0
    outer loop
      vertex 5.07294 -2.85316 2.2
      vertex 5.07294 -2.85316 0
      vertex 3.57294 -1.76335 2.2
    endloop
  endfacet
  facet normal 0.951058 0.309012 -0
    outer loop
      vertex 3 0 0
      vertex 3 0 2.2
      vertex 3.57294 -1.76335 0
    endloop
  endfacet
  facet normal 0.951058 0.309012 0
    outer loop
      vertex 3.57294 -1.76335 2.2
      vertex 3.57294 -1.76335 0
      vertex 3 0 2.2
    endloop
  endfacet
  facet normal 0.951058 -0.309012 0
    outer loop
      vertex 3.57294 1.76335 0
      vertex 3.57294 1.76335 2.2
      vertex 3 0 0
    endloop
  endfacet
  facet normal 0.951058 -0.309012 0
    outer loop
      vertex 3 0 2.2
      vertex 3 0 0
      vertex 3.57294 1.76335 2.2
    endloop
  endfacet
  facet normal 0.587785 -0.809017 0
    outer loop
      vertex 5.07294 2.85316 0
      vertex 5.07294 2.85316 2.2
      vertex 3.57294 1.76335 0
    endloop
  endfacet
  facet normal 0.587785 -0.809017 0
    outer loop
      vertex 3.57294 1.76335 2.2
      vertex 3.57294 1.76335 0
      vertex 5.07294 2.85316 2.2
    endloop
  endfacet
  facet normal 0 -1 0
    outer loop
      vertex 6.92705 2.85316 0
      vertex 6.92705 2.85316 2.2
      vertex 5.07294 2.85316 0
    endloop
  endfacet
  facet normal 0 -1 0
    outer loop
      vertex 5.07294 2.85316 2.2
      vertex 5.07294 2.85316 0
      vertex 6.92705 2.85316 2.2
    endloop
  endfacet
  facet normal -0.587785 -0.809017 0
    outer loop
      vertex 8.42705 1.76335 0
      vertex 8.42705 1.76335 2.2
      vertex 6.92705 2.85316 0
    endloop
  endfacet
  facet normal -0.587785 -0.809017 -0
    outer loop
      vertex 6.92705 2.85316 2.2
      vertex 6.92705 2.85316 0
      vertex 8.42705 1.76335 2.2
    endloop
  endfacet
  facet normal -0.951056 -0.309019 0
    outer loop
      vertex 9 0 0
      vertex 9 0 2.2
      vertex 8.42705 1.76335 0
    endloop
  endfacet
  facet normal -0.951056 -0.309019 -0
    outer loop
      vertex 8.42705 1.76335 2.2
      vertex 8.42705 1.76335 0
      vertex 9 0 2.2
    endloop
  endfacet
  facet normal -0.951056 0.309019 0
    outer loop
      vertex 8.42705 -1.76335 0
      vertex 8.42705 -1.76335 2.2
      vertex 9 0 0
    endloop
  endfacet
  facet normal -0.951056 0.309019 0
    outer loop
      vertex 9 0 2.2
      vertex 9 0 0
      vertex 8.42705 -1.76335 2.2
    endloop
  endfacet
  facet normal -0.587785 0.809017 0
    outer loop
      vertex 6.92705 -2.85316 0
      vertex 6.92705 -2.85316 2.2
      vertex 8.42705 -1.76335 0
    endloop
  endfacet
  facet normal -0.587785 0.809017 0
    outer loop
      vertex 8.42705 -1.76335 2.2
      vertex 8.42705 -1.76335 0
      vertex 6.92705 -2.85316 2.2
    endloop
  endfacet
  facet normal 0 1 0
    outer loop
      vertex 5.07294 -2.85316 0
      vertex 5.07294 -2.85316 2.2
      vertex 6.92705 -2.85316 0
    endloop
  endfacet
  facet normal 0 1 0
    outer loop
      vertex 6.92705 -2.85316 2.2
      vertex 6.92705 -2.85316 0
      vertex 5.07294 -2.85316 2.2
    endloop
  endfacet
endsolid OpenSCAD_Model
