solid OpenSCAD_Model
  facet normal 0 0 -1
    outer loop
      vertex 6 0 0
      vertex 19.1756 -6.23051 0
      vertex 17.6928 -7.87733 0
    endloop
  endfacet
  facet normal 0 0 -1
    outer loop
      vertex 20.336 -4.14999 0
      vertex 20.2836 -4.3114 0
      vertex 19.1756 -6.23051 0
    endloop
  endfacet
  facet normal 0 0 -1
    outer loop
      vertex 20.336 -4.14999 0
      vertex 6 0 0
      vertex 20.336 4.14999 0
    endloop
  endfacet
  facet normal -0 0 -1
    outer loop
      vertex 20.336 -4.14999 0
      vertex 19.1756 -6.23051 0
      vertex 6 0 0
    endloop
  endfacet
  facet normal 0 0 -1
    outer loop
      vertex 6 0 0
      vertex 17.6928 -7.87733 0
      vertex 15.9 -9.17986 0
    endloop
  endfacet
  facet normal 0 0 -1
    outer loop
      vertex 5.24698 1.56366 0
      vertex 5.29999 9.17986 0
      vertex 7.32442 10.0812 0
    endloop
  endfacet
  facet normal 0 0 -1
    outer loop
      vertex 44.2 -4.14999 0
      vertex 20.336 4.14999 0
      vertex 44.2 4.14999 0
    endloop
  endfacet
  facet normal 0 0 -1
    outer loop
      vertex 44.2 -4.14999 0
      vertex 20.336 -4.14999 0
      vertex 20.336 4.14999 0
    endloop
  endfacet
  facet normal 0 0 -1
    outer loop
      vertex 20.336 4.14999 0
      vertex 19.1756 6.23051 0
      vertex 20.2836 4.3114 0
    endloop
  endfacet
  facet normal -0 0 -1
    outer loop
      vertex 15.9 9.17986 0
      vertex 6 0 0
      vertex 13.8756 10.0812 0
    endloop
  endfacet
  facet normal 0 0 -1
    outer loop
      vertex 13.8756 10.0812 0
      vertex 6 0 0
      vertex 5.24698 1.56366 0
    endloop
  endfacet
  facet normal 0 -0 -1
    outer loop
      vertex 11.708 10.5419 0
      vertex 13.8756 10.0812 0
      vertex 5.24698 1.56366 0
    endloop
  endfacet
  facet normal 0 -0 -1
    outer loop
      vertex 9.49199 10.5419 0
      vertex 11.708 10.5419 0
      vertex 5.24698 1.56366 0
    endloop
  endfacet
  facet normal 0 0 -1
    outer loop
      vertex 2.02441 6.23051 0
      vertex 3.5072 7.87733 0
      vertex 5.24698 1.56366 0
    endloop
  endfacet
  facet normal 0 0 -1
    outer loop
      vertex 3.55495 1.94984 0
      vertex 2.02441 6.23051 0
      vertex 5.24698 1.56366 0
    endloop
  endfacet
  facet normal 0 0 -1
    outer loop
      vertex 3.55495 1.94984 0
      vertex 0.916412 4.3114 0
      vertex 2.02441 6.23051 0
    endloop
  endfacet
  facet normal 0 0 -1
    outer loop
      vertex 2.19806 0.867767 0
      vertex 0.863968 4.14999 0
      vertex 3.55495 1.94984 0
    endloop
  endfacet
  facet normal 0 0 -1
    outer loop
      vertex 2.19806 0.867767 0
      vertex 0 4.14999 0
      vertex 0.863968 4.14999 0
    endloop
  endfacet
  facet normal 0 0 -1
    outer loop
      vertex 9.49199 10.5419 0
      vertex 5.24698 1.56366 0
      vertex 7.32442 10.0812 0
    endloop
  endfacet
  facet normal -0 0 -1
    outer loop
      vertex 17.6928 7.87733 0
      vertex 6 0 0
      vertex 15.9 9.17986 0
    endloop
  endfacet
  facet normal 0 0 -1
    outer loop
      vertex 0.916412 -4.3114 0
      vertex 0.863968 -4.14999 0
      vertex 3.55495 -1.94984 0
    endloop
  endfacet
  facet normal 0 0 -1
    outer loop
      vertex 0.863968 -4.14999 0
      vertex 2.19806 -0.867767 0
      vertex 3.55495 -1.94984 0
    endloop
  endfacet
  facet normal 0 0 -1
    outer loop
      vertex 13.8756 -10.0812 0
      vertex 6 0 0
      vertex 15.9 -9.17986 0
    endloop
  endfacet
  facet normal 0 0 -1
    outer loop
      vertex 5.24698 -1.56366 0
      vertex 3.5072 -7.87733 0
      vertex 2.02441 -6.23051 0
    endloop
  endfacet
  facet normal 0 0 -1
    outer loop
      vertex 0.863968 -4.14999 0
      vertex 0 -4.14999 0
      vertex 2.19806 -0.867767 0
    endloop
  endfacet
  facet normal 0 0 -1
    outer loop
      vertex 3.55495 -1.94984 0
      vertex 2.02441 -6.23051 0
      vertex 0.916412 -4.3114 0
    endloop
  endfacet
  facet normal 0 -0 -1
    outer loop
      vertex 5.24698 -1.56366 0
      vertex 5.29999 -9.17986 0
      vertex 3.5072 -7.87733 0
    endloop
  endfacet
  facet normal 0 0 -1
    outer loop
      vertex 9.49199 -10.5419 0
      vertex 7.32442 -10.0812 0
      vertex 5.24698 -1.56366 0
    endloop
  endfacet
  facet normal 0 0 -1
    outer loop
      vertex 11.708 -10.5419 0
      vertex 9.49199 -10.5419 0
      vertex 5.24698 -1.56366 0
    endloop
  endfacet
  facet normal -0 0 -1
    outer loop
      vertex 13.8756 -10.0812 0
      vertex 11.708 -10.5419 0
      vertex 5.24698 -1.56366 0
    endloop
  endfacet
  facet normal 0 0 -1
    outer loop
      vertex 2.19806 -0.867767 0
      vertex 0 4.14999 0
      vertex 2.19806 0.867767 0
    endloop
  endfacet
  facet normal -0 0 -1
    outer loop
      vertex 2.19806 -0.867767 0
      vertex 0 -4.14999 0
      vertex 0 4.14999 0
    endloop
  endfacet
  facet normal 0 0 -1
    outer loop
      vertex 0.863968 4.14999 0
      vertex 0.916412 4.3114 0
      vertex 3.55495 1.94984 0
    endloop
  endfacet
  facet normal 0 0 -1
    outer loop
      vertex 3.5072 7.87733 0
      vertex 5.29999 9.17986 0
      vertex 5.24698 1.56366 0
    endloop
  endfacet
  facet normal 0 0 -1
    outer loop
      vertex 6 0 0
      vertex 19.1756 6.23051 0
      vertex 20.336 4.14999 0
    endloop
  endfacet
  facet normal 0 -0 -1
    outer loop
      vertex 17.6928 7.87733 0
      vertex 19.1756 6.23051 0
      vertex 6 0 0
    endloop
  endfacet
  facet normal 0 -0 -1
    outer loop
      vertex 6 0 0
      vertex 13.8756 -10.0812 0
      vertex 5.24698 -1.56366 0
    endloop
  endfacet
  facet normal 0 -0 -1
    outer loop
      vertex 3.55495 -1.94984 0
      vertex 5.24698 -1.56366 0
      vertex 2.02441 -6.23051 0
    endloop
  endfacet
  facet normal 0 0 -1
    outer loop
      vertex 5.24698 -1.56366 0
      vertex 7.32442 -10.0812 0
      vertex 5.29999 -9.17986 0
    endloop
  endfacet
  facet normal 0 -0 1
    outer loop
      vertex 17.6928 -7.87733 2
      vertex 19.1756 -6.23051 2
      vertex 6 0 2
    endloop
  endfacet
  facet normal 0 0 1
    outer loop
      vertex 19.1756 -6.23051 2
      vertex 20.2836 -4.3114 2
      vertex 20.336 -4.14999 2
    endloop
  endfacet
  facet normal 0 0 1
    outer loop
      vertex 20.336 4.14999 2
      vertex 6 0 2
      vertex 20.336 -4.14999 2
    endloop
  endfacet
  facet normal 0 0 1
    outer loop
      vertex 6 0 2
      vertex 19.1756 -6.23051 2
      vertex 20.336 -4.14999 2
    endloop
  endfacet
  facet normal 0 -0 1
    outer loop
      vertex 15.9 -9.17986 2
      vertex 17.6928 -7.87733 2
      vertex 6 0 2
    endloop
  endfacet
  facet normal 0 0 1
    outer loop
      vertex 7.32442 10.0812 2
      vertex 5.29999 9.17986 2
      vertex 5.24698 1.56366 2
    endloop
  endfacet
  facet normal 0 0 1
    outer loop
      vertex 44.2 4.14999 2
      vertex 20.336 4.14999 2
      vertex 44.2 -4.14999 2
    endloop
  endfacet
  facet normal 0 0 1
    outer loop
      vertex 20.336 4.14999 2
      vertex 20.336 -4.14999 2
      vertex 44.2 -4.14999 2
    endloop
  endfacet
  facet normal 0 0 1
    outer loop
      vertex 20.2836 4.3114 2
      vertex 19.1756 6.23051 2
      vertex 20.336 4.14999 2
    endloop
  endfacet
  facet normal 0 0 1
    outer loop
      vertex 13.8756 10.0812 2
      vertex 6 0 2
      vertex 15.9 9.17986 2
    endloop
  endfacet
  facet normal -0 0 1
    outer loop
      vertex 5.24698 1.56366 2
      vertex 6 0 2
      vertex 13.8756 10.0812 2
    endloop
  endfacet
  facet normal 0 0 1
    outer loop
      vertex 5.24698 1.56366 2
      vertex 13.8756 10.0812 2
      vertex 11.708 10.5419 2
    endloop
  endfacet
  facet normal 0 0 1
    outer loop
      vertex 5.24698 1.56366 2
      vertex 11.708 10.5419 2
      vertex 9.49199 10.5419 2
    endloop
  endfacet
  facet normal 0 0 1
    outer loop
      vertex 5.24698 1.56366 2
      vertex 3.5072 7.87733 2
      vertex 2.02441 6.23051 2
    endloop
  endfacet
  facet normal 0 0 1
    outer loop
      vertex 5.24698 1.56366 2
      vertex 2.02441 6.23051 2
      vertex 3.55495 1.94984 2
    endloop
  endfacet
  facet normal 0 0 1
    outer loop
      vertex 2.02441 6.23051 2
      vertex 0.916412 4.3114 2
      vertex 3.55495 1.94984 2
    endloop
  endfacet
  facet normal 0 0 1
    outer loop
      vertex 3.55495 1.94984 2
      vertex 0.863968 4.14999 2
      vertex 2.19806 0.867767 2
    endloop
  endfacet
  facet normal 0 0 1
    outer loop
      vertex 0.863968 4.14999 2
      vertex 0 4.14999 2
      vertex 2.19806 0.867767 2
    endloop
  endfacet
  facet normal -0 0 1
    outer loop
      vertex 7.32442 10.0812 2
      vertex 5.24698 1.56366 2
      vertex 9.49199 10.5419 2
    endloop
  endfacet
  facet normal 0 0 1
    outer loop
      vertex 15.9 9.17986 2
      vertex 6 0 2
      vertex 17.6928 7.87733 2
    endloop
  endfacet
  facet normal 0 0 1
    outer loop
      vertex 3.55495 -1.94984 2
      vertex 0.863968 -4.14999 2
      vertex 0.916412 -4.3114 2
    endloop
  endfacet
  facet normal 0 0 1
    outer loop
      vertex 3.55495 -1.94984 2
      vertex 2.19806 -0.867767 2
      vertex 0.863968 -4.14999 2
    endloop
  endfacet
  facet normal 0 0 1
    outer loop
      vertex 15.9 -9.17986 2
      vertex 6 0 2
      vertex 13.8756 -10.0812 2
    endloop
  endfacet
  facet normal -0 0 1
    outer loop
      vertex 2.02441 -6.23051 2
      vertex 3.5072 -7.87733 2
      vertex 5.24698 -1.56366 2
    endloop
  endfacet
  facet normal 0 0 1
    outer loop
      vertex 2.19806 -0.867767 2
      vertex 0 -4.14999 2
      vertex 0.863968 -4.14999 2
    endloop
  endfacet
  facet normal -0 0 1
    outer loop
      vertex 0.916412 -4.3114 2
      vertex 2.02441 -6.23051 2
      vertex 3.55495 -1.94984 2
    endloop
  endfacet
  facet normal -0 0 1
    outer loop
      vertex 3.5072 -7.87733 2
      vertex 5.29999 -9.17986 2
      vertex 5.24698 -1.56366 2
    endloop
  endfacet
  facet normal 0 0 1
    outer loop
      vertex 5.24698 -1.56366 2
      vertex 7.32442 -10.0812 2
      vertex 9.49199 -10.5419 2
    endloop
  endfacet
  facet normal 0 0 1
    outer loop
      vertex 5.24698 -1.56366 2
      vertex 9.49199 -10.5419 2
      vertex 11.708 -10.5419 2
    endloop
  endfacet
  facet normal 0 0 1
    outer loop
      vertex 5.24698 -1.56366 2
      vertex 11.708 -10.5419 2
      vertex 13.8756 -10.0812 2
    endloop
  endfacet
  facet normal 0 0 1
    outer loop
      vertex 2.19806 0.867767 2
      vertex 0 4.14999 2
      vertex 2.19806 -0.867767 2
    endloop
  endfacet
  facet normal 0 0 1
    outer loop
      vertex 0 4.14999 2
      vertex 0 -4.14999 2
      vertex 2.19806 -0.867767 2
    endloop
  endfacet
  facet normal 0 0 1
    outer loop
      vertex 3.55495 1.94984 2
      vertex 0.916412 4.3114 2
      vertex 0.863968 4.14999 2
    endloop
  endfacet
  facet normal 0 -0 1
    outer loop
      vertex 5.24698 1.56366 2
      vertex 5.29999 9.17986 2
      vertex 3.5072 7.87733 2
    endloop
  endfacet
  facet normal 0 0 1
    outer loop
      vertex 20.336 4.14999 2
      vertex 19.1756 6.23051 2
      vertex 6 0 2
    endloop
  endfacet
  facet normal 0 0 1
    outer loop
      vertex 6 0 2
      vertex 19.1756 6.23051 2
      vertex 17.6928 7.87733 2
    endloop
  endfacet
  facet normal -0 0 1
    outer loop
      vertex 5.24698 -1.56366 2
      vertex 13.8756 -10.0812 2
      vertex 6 0 2
    endloop
  endfacet
  facet normal 0 0 1
    outer loop
      vertex 2.02441 -6.23051 2
      vertex 5.24698 -1.56366 2
      vertex 3.55495 -1.94984 2
    endloop
  endfacet
  facet normal -0 -0 1
    outer loop
      vertex 5.29999 -9.17986 2
      vertex 7.32442 -10.0812 2
      vertex 5.24698 -1.56366 2
    endloop
  endfacet
  facet normal 0.40674 -0.913544 0
    outer loop
      vertex 15.9 -9.17986 0
      vertex 13.8756 -10.0812 2
      vertex 13.8756 -10.0812 0
    endloop
  endfacet
  facet normal 0.40674 -0.913544 0
    outer loop
      vertex 15.9 -9.17986 0
      vertex 15.9 -9.17986 2
      vertex 13.8756 -10.0812 2
    endloop
  endfacet
  facet normal 0.587781 -0.80902 0
    outer loop
      vertex 17.6928 -7.87733 0
      vertex 15.9 -9.17986 2
      vertex 15.9 -9.17986 0
    endloop
  endfacet
  facet normal 0.587781 -0.80902 0
    outer loop
      vertex 17.6928 -7.87733 0
      vertex 17.6928 -7.87733 2
      vertex 15.9 -9.17986 2
    endloop
  endfacet
  facet normal 0.743148 -0.669127 0
    outer loop
      vertex 19.1756 -6.23051 0
      vertex 17.6928 -7.87733 2
      vertex 17.6928 -7.87733 0
    endloop
  endfacet
  facet normal 0.743148 -0.669127 0
    outer loop
      vertex 19.1756 -6.23051 0
      vertex 19.1756 -6.23051 2
      vertex 17.6928 -7.87733 2
    endloop
  endfacet
  facet normal 0.866025 -0.5 0
    outer loop
      vertex 20.2836 -4.3114 0
      vertex 19.1756 -6.23051 2
      vertex 19.1756 -6.23051 0
    endloop
  endfacet
  facet normal 0.866025 -0.5 0
    outer loop
      vertex 20.2836 -4.3114 0
      vertex 20.2836 -4.3114 2
      vertex 19.1756 -6.23051 2
    endloop
  endfacet
  facet normal 0.951057 -0.309017 0
    outer loop
      vertex 20.336 -4.14999 0
      vertex 20.2836 -4.3114 2
      vertex 20.2836 -4.3114 0
    endloop
  endfacet
  facet normal 0.951057 -0.309017 0
    outer loop
      vertex 20.336 -4.14999 0
      vertex 20.336 -4.14999 2
      vertex 20.2836 -4.3114 2
    endloop
  endfacet
  facet normal 0 -1 0
    outer loop
      vertex 44.2 -4.14999 0
      vertex 20.336 -4.14999 2
      vertex 20.336 -4.14999 0
    endloop
  endfacet
  facet normal 0 -1 0
    outer loop
      vertex 44.2 -4.14999 0
      vertex 44.2 -4.14999 2
      vertex 20.336 -4.14999 2
    endloop
  endfacet
  facet normal 1 0 0
    outer loop
      vertex 44.2 4.14999 0
      vertex 44.2 -4.14999 2
      vertex 44.2 -4.14999 0
    endloop
  endfacet
  facet normal 1 0 -0
    outer loop
      vertex 44.2 4.14999 0
      vertex 44.2 4.14999 2
      vertex 44.2 -4.14999 2
    endloop
  endfacet
  facet normal 0 1 0
    outer loop
      vertex 20.336 4.14999 0
      vertex 44.2 4.14999 2
      vertex 44.2 4.14999 0
    endloop
  endfacet
  facet normal 0 1 0
    outer loop
      vertex 20.336 4.14999 0
      vertex 20.336 4.14999 2
      vertex 44.2 4.14999 2
    endloop
  endfacet
  facet normal 0.951057 0.309017 0
    outer loop
      vertex 20.2836 4.3114 0
      vertex 20.336 4.14999 2
      vertex 20.336 4.14999 0
    endloop
  endfacet
  facet normal 0.951057 0.309017 -0
    outer loop
      vertex 20.2836 4.3114 0
      vertex 20.2836 4.3114 2
      vertex 20.336 4.14999 2
    endloop
  endfacet
  facet normal 0.866025 0.5 0
    outer loop
      vertex 19.1756 6.23051 0
      vertex 20.2836 4.3114 2
      vertex 20.2836 4.3114 0
    endloop
  endfacet
  facet normal 0.866025 0.5 -0
    outer loop
      vertex 19.1756 6.23051 0
      vertex 19.1756 6.23051 2
      vertex 20.2836 4.3114 2
    endloop
  endfacet
  facet normal 0.743148 0.669127 0
    outer loop
      vertex 17.6928 7.87733 0
      vertex 19.1756 6.23051 2
      vertex 19.1756 6.23051 0
    endloop
  endfacet
  facet normal 0.743148 0.669127 -0
    outer loop
      vertex 17.6928 7.87733 0
      vertex 17.6928 7.87733 2
      vertex 19.1756 6.23051 2
    endloop
  endfacet
  facet normal 0.587781 0.80902 0
    outer loop
      vertex 15.9 9.17986 0
      vertex 17.6928 7.87733 2
      vertex 17.6928 7.87733 0
    endloop
  endfacet
  facet normal 0.587781 0.80902 -0
    outer loop
      vertex 15.9 9.17986 0
      vertex 15.9 9.17986 2
      vertex 17.6928 7.87733 2
    endloop
  endfacet
  facet normal 0.40674 0.913544 0
    outer loop
      vertex 13.8756 10.0812 0
      vertex 15.9 9.17986 2
      vertex 15.9 9.17986 0
    endloop
  endfacet
  facet normal 0.40674 0.913544 -0
    outer loop
      vertex 13.8756 10.0812 0
      vertex 13.8756 10.0812 2
      vertex 15.9 9.17986 2
    endloop
  endfacet
  facet normal 0.207914 0.978147 0
    outer loop
      vertex 11.708 10.5419 0
      vertex 13.8756 10.0812 2
      vertex 13.8756 10.0812 0
    endloop
  endfacet
  facet normal 0.207914 0.978147 -0
    outer loop
      vertex 11.708 10.5419 0
      vertex 11.708 10.5419 2
      vertex 13.8756 10.0812 2
    endloop
  endfacet
  facet normal 0 1 0
    outer loop
      vertex 9.49199 10.5419 0
      vertex 11.708 10.5419 2
      vertex 11.708 10.5419 0
    endloop
  endfacet
  facet normal 0 1 0
    outer loop
      vertex 9.49199 10.5419 0
      vertex 9.49199 10.5419 2
      vertex 11.708 10.5419 2
    endloop
  endfacet
  facet normal -0.207915 0.978147 0
    outer loop
      vertex 7.32442 10.0812 0
      vertex 9.49199 10.5419 2
      vertex 9.49199 10.5419 0
    endloop
  endfacet
  facet normal -0.207915 0.978147 0
    outer loop
      vertex 7.32442 10.0812 0
      vertex 7.32442 10.0812 2
      vertex 9.49199 10.5419 2
    endloop
  endfacet
  facet normal -0.406738 0.913545 0
    outer loop
      vertex 5.29999 9.17986 0
      vertex 7.32442 10.0812 2
      vertex 7.32442 10.0812 0
    endloop
  endfacet
  facet normal -0.406738 0.913545 0
    outer loop
      vertex 5.29999 9.17986 0
      vertex 5.29999 9.17986 2
      vertex 7.32442 10.0812 2
    endloop
  endfacet
  facet normal -0.587781 0.80902 0
    outer loop
      vertex 3.5072 7.87733 0
      vertex 5.29999 9.17986 2
      vertex 5.29999 9.17986 0
    endloop
  endfacet
  facet normal -0.587781 0.80902 0
    outer loop
      vertex 3.5072 7.87733 0
      vertex 3.5072 7.87733 2
      vertex 5.29999 9.17986 2
    endloop
  endfacet
  facet normal -0.743148 0.669127 0
    outer loop
      vertex 2.02441 6.23051 0
      vertex 3.5072 7.87733 2
      vertex 3.5072 7.87733 0
    endloop
  endfacet
  facet normal -0.743148 0.669127 0
    outer loop
      vertex 2.02441 6.23051 0
      vertex 2.02441 6.23051 2
      vertex 3.5072 7.87733 2
    endloop
  endfacet
  facet normal -0.866025 0.5 0
    outer loop
      vertex 0.916412 4.3114 0
      vertex 2.02441 6.23051 2
      vertex 2.02441 6.23051 0
    endloop
  endfacet
  facet normal -0.866025 0.5 0
    outer loop
      vertex 0.916412 4.3114 0
      vertex 0.916412 4.3114 2
      vertex 2.02441 6.23051 2
    endloop
  endfacet
  facet normal -0.951057 0.309017 0
    outer loop
      vertex 0.863968 4.14999 0
      vertex 0.916412 4.3114 2
      vertex 0.916412 4.3114 0
    endloop
  endfacet
  facet normal -0.951057 0.309017 0
    outer loop
      vertex 0.863968 4.14999 0
      vertex 0.863968 4.14999 2
      vertex 0.916412 4.3114 2
    endloop
  endfacet
  facet normal 0 1 0
    outer loop
      vertex 0 4.14999 0
      vertex 0.863968 4.14999 2
      vertex 0.863968 4.14999 0
    endloop
  endfacet
  facet normal 0 1 0
    outer loop
      vertex 0 4.14999 0
      vertex 0 4.14999 2
      vertex 0.863968 4.14999 2
    endloop
  endfacet
  facet normal -1 0 0
    outer loop
      vertex 0 -4.14999 0
      vertex 0 4.14999 2
      vertex 0 4.14999 0
    endloop
  endfacet
  facet normal -1 0 0
    outer loop
      vertex 0 -4.14999 0
      vertex 0 -4.14999 2
      vertex 0 4.14999 2
    endloop
  endfacet
  facet normal 0 -1 0
    outer loop
      vertex 0.863968 -4.14999 0
      vertex 0 -4.14999 2
      vertex 0 -4.14999 0
    endloop
  endfacet
  facet normal 0 -1 0
    outer loop
      vertex 0.863968 -4.14999 0
      vertex 0.863968 -4.14999 2
      vertex 0 -4.14999 2
    endloop
  endfacet
  facet normal -0.951057 -0.309017 0
    outer loop
      vertex 0.916412 -4.3114 0
      vertex 0.863968 -4.14999 2
      vertex 0.863968 -4.14999 0
    endloop
  endfacet
  facet normal -0.951057 -0.309017 0
    outer loop
      vertex 0.916412 -4.3114 0
      vertex 0.916412 -4.3114 2
      vertex 0.863968 -4.14999 2
    endloop
  endfacet
  facet normal -0.866025 -0.5 0
    outer loop
      vertex 2.02441 -6.23051 0
      vertex 0.916412 -4.3114 2
      vertex 0.916412 -4.3114 0
    endloop
  endfacet
  facet normal -0.866025 -0.5 0
    outer loop
      vertex 2.02441 -6.23051 0
      vertex 2.02441 -6.23051 2
      vertex 0.916412 -4.3114 2
    endloop
  endfacet
  facet normal -0.743148 -0.669127 0
    outer loop
      vertex 3.5072 -7.87733 0
      vertex 2.02441 -6.23051 2
      vertex 2.02441 -6.23051 0
    endloop
  endfacet
  facet normal -0.743148 -0.669127 0
    outer loop
      vertex 3.5072 -7.87733 0
      vertex 3.5072 -7.87733 2
      vertex 2.02441 -6.23051 2
    endloop
  endfacet
  facet normal -0.587781 -0.80902 0
    outer loop
      vertex 5.29999 -9.17986 0
      vertex 3.5072 -7.87733 2
      vertex 3.5072 -7.87733 0
    endloop
  endfacet
  facet normal -0.587781 -0.80902 0
    outer loop
      vertex 5.29999 -9.17986 0
      vertex 5.29999 -9.17986 2
      vertex 3.5072 -7.87733 2
    endloop
  endfacet
  facet normal -0.406738 -0.913545 0
    outer loop
      vertex 7.32442 -10.0812 0
      vertex 5.29999 -9.17986 2
      vertex 5.29999 -9.17986 0
    endloop
  endfacet
  facet normal -0.406738 -0.913545 0
    outer loop
      vertex 7.32442 -10.0812 0
      vertex 7.32442 -10.0812 2
      vertex 5.29999 -9.17986 2
    endloop
  endfacet
  facet normal -0.207915 -0.978147 0
    outer loop
      vertex 9.49199 -10.5419 0
      vertex 7.32442 -10.0812 2
      vertex 7.32442 -10.0812 0
    endloop
  endfacet
  facet normal -0.207915 -0.978147 0
    outer loop
      vertex 9.49199 -10.5419 0
      vertex 9.49199 -10.5419 2
      vertex 7.32442 -10.0812 2
    endloop
  endfacet
  facet normal 0 -1 0
    outer loop
      vertex 11.708 -10.5419 0
      vertex 9.49199 -10.5419 2
      vertex 9.49199 -10.5419 0
    endloop
  endfacet
  facet normal 0 -1 0
    outer loop
      vertex 11.708 -10.5419 0
      vertex 11.708 -10.5419 2
      vertex 9.49199 -10.5419 2
    endloop
  endfacet
  facet normal 0.207914 -0.978147 0
    outer loop
      vertex 13.8756 -10.0812 0
      vertex 11.708 -10.5419 2
      vertex 11.708 -10.5419 0
    endloop
  endfacet
  facet normal 0.207914 -0.978147 0
    outer loop
      vertex 13.8756 -10.0812 0
      vertex 13.8756 -10.0812 2
      vertex 11.708 -10.5419 2
    endloop
  endfacet
  facet normal 1 0 -0
    outer loop
      vertex 2.19806 0.867767 0
      vertex 2.19806 0.867767 2
      vertex 2.19806 -0.867767 0
    endloop
  endfacet
  facet normal 1 -0 0
    outer loop
      vertex 2.19806 -0.867767 2
      vertex 2.19806 -0.867767 0
      vertex 2.19806 0.867767 2
    endloop
  endfacet
  facet normal 0.623488 -0.781833 0
    outer loop
      vertex 3.55495 1.94984 0
      vertex 3.55495 1.94984 2
      vertex 2.19806 0.867767 0
    endloop
  endfacet
  facet normal 0.623488 -0.781833 0
    outer loop
      vertex 2.19806 0.867767 2
      vertex 2.19806 0.867767 0
      vertex 3.55495 1.94984 2
    endloop
  endfacet
  facet normal -0.222515 -0.974929 0
    outer loop
      vertex 5.24698 1.56366 0
      vertex 5.24698 1.56366 2
      vertex 3.55495 1.94984 0
    endloop
  endfacet
  facet normal -0.222515 -0.974929 -0
    outer loop
      vertex 3.55495 1.94984 2
      vertex 3.55495 1.94984 0
      vertex 5.24698 1.56366 2
    endloop
  endfacet
  facet normal -0.900968 -0.433885 0
    outer loop
      vertex 6 0 0
      vertex 6 0 2
      vertex 5.24698 1.56366 0
    endloop
  endfacet
  facet normal -0.900968 -0.433885 -0
    outer loop
      vertex 5.24698 1.56366 2
      vertex 5.24698 1.56366 0
      vertex 6 0 2
    endloop
  endfacet
  facet normal -0.900968 0.433885 0
    outer loop
      vertex 5.24698 -1.56366 0
      vertex 5.24698 -1.56366 2
      vertex 6 0 0
    endloop
  endfacet
  facet normal -0.900968 0.433885 0
    outer loop
      vertex 6 0 2
      vertex 6 0 0
      vertex 5.24698 -1.56366 2
    endloop
  endfacet
  facet normal -0.222515 0.974929 0
    outer loop
      vertex 3.55495 -1.94984 0
      vertex 3.55495 -1.94984 2
      vertex 5.24698 -1.56366 0
    endloop
  endfacet
  facet normal -0.222515 0.974929 0
    outer loop
      vertex 5.24698 -1.56366 2
      vertex 5.24698 -1.56366 0
      vertex 3.55495 -1.94984 2
    endloop
  endfacet
  facet normal 0.623488 0.781833 -0
    outer loop
      vertex 2.19806 -0.867767 0
      vertex 2.19806 -0.867767 2
      vertex 3.55495 -1.94984 0
    endloop
  endfacet
  facet normal 0.623488 0.781833 0
    outer loop
      vertex 3.55495 -1.94984 2
      vertex 3.55495 -1.94984 0
      vertex 2.19806 -0.867767 2
    endloop
  endfacet
endsolid OpenSCAD_Model
